<svg xmlns="http://www.w3.org/2000/svg" preserveAspectRatio="xMidYMid" width="15" height="20.031" viewBox="0 0 15 20.031"><defs><style>.cls-1{fill:#f4f4f4;fill-rule:evenodd}</style></defs><path d="M7.5.003C3.366.003 0 3.691 0 8.219c0 3.849 5.421 9.476 7.054 11.563.248.299.669.299.891 0C9.554 17.695 15 12.095 15 8.219 15 3.664 11.633.003 7.5.003zm2.417 10.973C5.842 13.305 1.651 9.149 4 5.108a2.858 2.858 0 0 1 1.082-1.073C9.158 1.706 13.348 5.861 11 9.903a3.034 3.034 0 0 1-1.083 1.073z" class="cls-1"/></svg>