<svg xmlns="http://www.w3.org/2000/svg" preserveAspectRatio="xMidYMid" width="18" height="18" viewBox="0 0 18 18"><defs><style>.cls-1{fill:#fff;fill-rule:evenodd}</style></defs><path d="M17.421 17.411a1.959 1.959 0 0 1-1.397.579 1.963 1.963 0 0 1-1.398-.579l-1.882-1.882a.604.604 0 0 1-.18-.474.613.613 0 0 1 .254-.446 8.17 8.17 0 0 0 1.8-1.799.604.604 0 0 1 .491-.256c.16 0 .312.065.429.182l1.883 1.882c.77.77.77 2.023 0 2.793zM7.839 15.67C3.516 15.67 0 12.154 0 7.832S3.516-.006 7.839-.006s7.84 3.516 7.84 7.838-3.517 7.838-7.84 7.838zm0-13.323a5.491 5.491 0 0 0-5.486 5.485 5.492 5.492 0 0 0 5.486 5.486 5.492 5.492 0 0 0 5.487-5.486 5.492 5.492 0 0 0-5.487-5.485z" class="cls-1"/></svg>