<svg width="314" height="310" viewBox="0 0 314 310" xmlns="http://www.w3.org/2000/svg" xmlns:xlink="http://www.w3.org/1999/xlink"><svg width="28" height="34" viewBox="-5 -5 28 34" id="ad"><defs><style>.acls-1{fill:#333;fill-rule:evenodd}</style></defs><path id="a_1.svg" data-name="1.svg" class="acls-1" d="M482.375 238v5.626H488zm-1.5 7.126V238H470v24h18v-16.875h-7.125zM473 241h4.5v5.626H473V241zm12 16.5h-12V256h12v1.5zm0-3h-12V253h12v1.5zm0-3h-12V250h12v1.5z" transform="translate(-470 -238)"/></svg><svg width="28" height="34" viewBox="-5 -5 28 34" id="ad-h" x="28" y="34"><defs><style>.bcls-1{fill:#1b88cd;fill-rule:evenodd}</style></defs><path id="b_1.svg" data-name="1.svg" class="bcls-1" d="M482.375 238v5.626H488zm-1.5 7.126V238H470v24h18v-16.875h-7.125zM473 241h4.5v5.626H473V241zm12 16.5h-12V256h12v1.5zm0-3h-12V253h12v1.5zm0-3h-12V250h12v1.5z" transform="translate(-470 -238)"/></svg><svg width="32" height="31" viewBox="-5 -5 32 31" id="favorite" x="56" y="68"><defs><style>.ccls-1{fill:#333;fill-rule:evenodd}</style></defs><path id="c_3.svg" data-name="3.svg" class="ccls-1" d="M780 255.96l-6.8 4.051 1.739-7.742-5.939-5.238 7.872-.734 3.128-7.29 3.127 7.29 7.873.734-5.94 5.238 1.739 7.742z" transform="translate(-769 -239)"/></svg><svg width="32" height="31" viewBox="-5 -5 32 31" id="favorite-h" x="88" y="99"><defs><style>.dcls-1{fill:#1b88cd;fill-rule:evenodd}</style></defs><path id="d_3.svg" data-name="3.svg" class="dcls-1" d="M780 255.96l-6.8 4.051 1.739-7.742-5.939-5.238 7.872-.734 3.128-7.29 3.127 7.29 7.873.734-5.94 5.238 1.739 7.742z" transform="translate(-769 -239)"/></svg><svg width="33" height="30" viewBox="-5 -5 33 30" id="messages" x="120" y="130"><defs><style>.ecls-1{fill:#333;fill-rule:evenodd}</style></defs><path id="e_2.svg" data-name="2.svg" class="ecls-1" d="M631 242.371v11.057a2.372 2.372 0 0 0 2.373 2.372h13.036l4.1 4.093a.348.348 0 0 0 .6-.249V255.8h.525a2.372 2.372 0 0 0 2.366-2.372v-11.057a2.371 2.371 0 0 0-2.372-2.371H633.4a2.361 2.361 0 0 0-2.4 2.371zm4.671 1.523a.288.288 0 0 1 .3-.3h13.087a.289.289 0 0 1 .3.3v1.2a.288.288 0 0 1-.3.3h-13.089a.288.288 0 0 1-.3-.3v-1.2zm0 3.394a.287.287 0 0 1 .3-.3h13.087a.288.288 0 0 1 .3.3v1.2a.289.289 0 0 1-.3.3h-13.089a.288.288 0 0 1-.3-.3v-1.2zm0 3.395a.288.288 0 0 1 .3-.3h7.318a.289.289 0 0 1 .3.3v1.2a.288.288 0 0 1-.3.3h-7.318a.287.287 0 0 1-.3-.3v-1.2z" transform="translate(-631 -240)"/></svg><svg width="33" height="30" viewBox="-5 -5 33 30" id="messages-h" x="153" y="160"><defs><style>.fcls-1{fill:#1b88cd;fill-rule:evenodd}</style></defs><path id="f_2.svg" data-name="2.svg" class="fcls-1" d="M631 242.371v11.057a2.372 2.372 0 0 0 2.373 2.372h13.036l4.1 4.093a.348.348 0 0 0 .6-.249V255.8h.525a2.372 2.372 0 0 0 2.366-2.372v-11.057a2.371 2.371 0 0 0-2.372-2.371H633.4a2.361 2.361 0 0 0-2.4 2.371zm4.671 1.523a.288.288 0 0 1 .3-.3h13.087a.289.289 0 0 1 .3.3v1.2a.288.288 0 0 1-.3.3h-13.089a.288.288 0 0 1-.3-.3v-1.2zm0 3.394a.287.287 0 0 1 .3-.3h13.087a.288.288 0 0 1 .3.3v1.2a.289.289 0 0 1-.3.3h-13.089a.288.288 0 0 1-.3-.3v-1.2zm0 3.395a.288.288 0 0 1 .3-.3h7.318a.289.289 0 0 1 .3.3v1.2a.288.288 0 0 1-.3.3h-7.318a.287.287 0 0 1-.3-.3v-1.2z" transform="translate(-631 -240)"/></svg><svg width="34" height="30" viewBox="-5 -5 34 30" id="money" x="186" y="190"><defs><style>.gcls-1{fill:#333;fill-rule:evenodd}</style></defs><path id="g_4.svg" data-name="4.svg" class="gcls-1" d="M925.111 248.26h-.888v-3.043a1.76 1.76 0 0 0-1.78-1.739h-17.776a.87.87 0 1 1 0-1.739h16.889a.87.87 0 1 0 0-1.739h-16.889a2.638 2.638 0 0 0-2.667 2.608v14.784a2.638 2.638 0 0 0 2.667 2.608h17.776a1.76 1.76 0 0 0 1.78-1.739v-3.043h.888a.88.88 0 0 0 .889-.87v-5.218a.88.88 0 0 0-.889-.87zM922 253.547a1.808 1.808 0 1 1 1.846-1.809 1.827 1.827 0 0 1-1.846 1.809z" transform="translate(-902 -240)"/></svg><svg width="34" height="30" viewBox="-5 -5 34 30" id="money-h" x="220" y="220"><defs><style>.hcls-1{fill:#1b88cd;fill-rule:evenodd}</style></defs><path id="h_4.svg" data-name="4.svg" class="hcls-1" d="M925.111 248.26h-.888v-3.043a1.76 1.76 0 0 0-1.78-1.739h-17.776a.87.87 0 1 1 0-1.739h16.889a.87.87 0 1 0 0-1.739h-16.889a2.638 2.638 0 0 0-2.667 2.608v14.784a2.638 2.638 0 0 0 2.667 2.608h17.776a1.76 1.76 0 0 0 1.78-1.739v-3.043h.888a.88.88 0 0 0 .889-.87v-5.218a.88.88 0 0 0-.889-.87zM922 253.547a1.808 1.808 0 1 1 1.846-1.809 1.827 1.827 0 0 1-1.846 1.809z" transform="translate(-902 -240)"/></svg><svg width="30" height="30" viewBox="-5 -5 30 30" id="settings" x="254" y="250"><defs><style>.icls-1{fill:#333;fill-rule:evenodd}</style></defs><path id="i_5.svg" data-name="5.svg" class="icls-1" d="M1064.63 251.006c0-.3.09-.71.09-1.006a3.81 3.81 0 0 0-.09-1.006l2.16-1.509a.457.457 0 0 0 .09-.71l-2.07-3.491a.468.468 0 0 0-.62-.3l-2.46 1.124a7.016 7.016 0 0 0-1.86-1.006l-.3-2.6a.477.477 0 0 0-.5-.5h-4.11a.485.485 0 0 0-.51.5l-.29 2.486a8.135 8.135 0 0 0-1.87 1.006l-2.45-1.006a.518.518 0 0 0-.62.207l-2.07 3.491c-.21.3-.21.592.09.71l2.16 1.6c0 .3-.09.71-.09 1.006a3.81 3.81 0 0 0 .09 1.006l-2.16 1.479a.457.457 0 0 0-.09.71l2.07 3.492a.469.469 0 0 0 .62.3l2.45-1.095a7.235 7.235 0 0 0 1.87 1.006l.29 2.6a.485.485 0 0 0 .51.5h4.11a.477.477 0 0 0 .5-.5l.3-2.6a7.894 7.894 0 0 0 1.86-1.006l2.46 1.095a.519.519 0 0 0 .62-.208l2.07-3.491a.687.687 0 0 0-.09-.71zm-7.6 2.988a4 4 0 1 1 4.11-3.994 4.077 4.077 0 0 1-4.11 3.994z" transform="translate(-1047 -240)"/></svg><svg width="30" height="30" viewBox="-5 -5 30 30" id="settings-h" x="284" y="280"><defs><style>.jcls-1{fill:#1b88cd;fill-rule:evenodd}</style></defs><path id="j_5.svg" data-name="5.svg" class="jcls-1" d="M1064.63 251.006c0-.3.09-.71.09-1.006a3.81 3.81 0 0 0-.09-1.006l2.16-1.509a.457.457 0 0 0 .09-.71l-2.07-3.491a.468.468 0 0 0-.62-.3l-2.46 1.124a7.016 7.016 0 0 0-1.86-1.006l-.3-2.6a.477.477 0 0 0-.5-.5h-4.11a.485.485 0 0 0-.51.5l-.29 2.486a8.135 8.135 0 0 0-1.87 1.006l-2.45-1.006a.518.518 0 0 0-.62.207l-2.07 3.491c-.21.3-.21.592.09.71l2.16 1.6c0 .3-.09.71-.09 1.006a3.81 3.81 0 0 0 .09 1.006l-2.16 1.479a.457.457 0 0 0-.09.71l2.07 3.492a.469.469 0 0 0 .62.3l2.45-1.095a7.235 7.235 0 0 0 1.87 1.006l.29 2.6a.485.485 0 0 0 .51.5h4.11a.477.477 0 0 0 .5-.5l.3-2.6a7.894 7.894 0 0 0 1.86-1.006l2.46 1.095a.519.519 0 0 0 .62-.208l2.07-3.491a.687.687 0 0 0-.09-.71zm-7.6 2.988a4 4 0 1 1 4.11-3.994 4.077 4.077 0 0 1-4.11 3.994z" transform="translate(-1047 -240)"/></svg></svg>