<?xml version="1.0" standalone="no"?>
<!DOCTYPE svg PUBLIC "-//W3C//DTD SVG 20010904//EN"
 "http://www.w3.org/TR/2001/REC-SVG-20010904/DTD/svg10.dtd">
<svg version="1.0" xmlns="http://www.w3.org/2000/svg"
 width="300.000000pt" height="300.000000pt" viewBox="0 0 300.000000 300.000000"
 preserveAspectRatio="xMidYMid meet">
<metadata>
Created by potrace 1.11, written by Peter Selinger 2001-2013
</metadata>
<g transform="translate(0.000000,300.000000) scale(0.100000,-0.100000)"
fill="#000000" stroke="none">
<path d="M362 2863 c-39 -8 -99 -74 -107 -117 -9 -46 -6 -56 113 -406 50 -146
109 -326 130 -400 34 -115 111 -421 126 -500 8 -43 35 -161 56 -240 10 -41 22
-91 25 -110 23 -133 206 -195 334 -112 53 34 71 74 70 154 -1 80 45 214 156
454 58 124 126 291 155 383 31 95 30 96 59 -64 11 -60 23 -123 26 -140 3 -16
15 -77 25 -135 11 -58 22 -116 25 -130 12 -60 27 -137 31 -160 18 -101 66
-268 99 -347 27 -62 105 -102 194 -99 49 2 69 8 102 32 51 36 82 91 169 304
65 158 125 299 155 364 126 279 275 641 314 766 16 52 48 142 71 200 51 128
56 173 26 226 -52 92 -187 113 -268 41 -62 -55 -94 -130 -158 -363 -39 -141
-363 -974 -380 -974 -3 0 -13 35 -23 78 -99 460 -119 560 -131 667 -6 53 -11
85 -20 150 -3 22 -8 60 -11 85 -33 247 -94 354 -208 367 -142 16 -239 -137
-405 -642 -54 -165 -121 -358 -147 -430 l-49 -129 -14 59 c-118 508 -231 903
-298 1043 -43 90 -88 124 -167 128 -29 1 -62 0 -75 -3z"/>
<path d="M723 725 c-20 -15 -29 -110 -28 -312 0 -128 2 -147 18 -157 12 -8 22
-8 35 0 13 9 18 28 20 93 l3 81 32 1 c72 1 119 24 159 74 18 23 23 42 23 86 0
67 -23 100 -93 131 -47 21 -142 23 -169 3z m146 -80 c73 -37 38 -124 -55 -133
l-34 -3 0 75 0 76 30 0 c17 0 44 -7 59 -15z"/>
<path d="M1046 724 c-13 -12 -16 -40 -17 -132 0 -64 -2 -163 -5 -219 -5 -101
-5 -102 20 -119 33 -21 130 -15 243 15 44 12 67 38 57 65 -10 25 -35 27 -109
8 -94 -24 -131 -23 -128 3 9 74 10 361 2 377 -12 22 -42 23 -63 2z"/>
<path d="M1580 733 c-18 -7 -18 -8 -113 -138 -39 -54 -82 -110 -94 -124 -51
-54 -14 -81 112 -81 l92 0 -2 -47 c-2 -67 4 -82 33 -90 35 -8 52 18 52 82 0
49 1 51 33 60 25 8 32 15 32 35 0 20 -7 27 -32 35 l-33 9 0 117 c0 141 -15
167 -80 142z m-4 -203 l0 -60 -47 0 -47 0 40 60 c22 33 43 60 46 60 4 0 7 -27
8 -60z"/>
<path d="M2128 726 c-115 -51 -159 -246 -87 -388 30 -58 80 -87 148 -84 69 2
108 21 138 65 33 49 46 105 45 197 0 88 -18 139 -64 182 -43 40 -125 53 -180
28z m119 -83 c32 -29 41 -65 39 -149 -4 -113 -35 -164 -99 -164 -13 0 -35 9
-49 19 -69 55 -57 264 17 300 32 15 71 13 92 -6z"/>
<path d="M246 704 c-19 -18 -19 -20 -6 -45 9 -16 22 -19 80 -19 39 0 70 -3 71
-7 5 -49 9 -100 14 -218 4 -77 12 -146 17 -152 16 -20 46 -15 62 9 15 24 15
74 1 272 l-6 97 81 -6 c88 -7 110 1 110 39 0 43 -14 46 -216 46 -162 0 -195
-3 -208 -16z"/>
<path d="M2481 707 c-40 -20 -58 -64 -60 -152 -3 -124 -11 -285 -16 -334 -5
-50 8 -81 33 -81 31 0 45 18 51 61 l6 43 51 -3 c56 -3 117 18 145 48 20 21 39
83 39 125 0 43 -35 109 -69 129 -25 15 -28 22 -26 59 3 56 -10 84 -50 103 -40
18 -72 19 -104 2z m77 -74 c7 -11 5 -30 -4 -55 -19 -54 -5 -86 38 -90 27 -2
35 -9 44 -36 23 -72 -16 -142 -79 -142 -55 0 -59 12 -54 174 3 80 8 150 12
155 10 16 33 13 43 -6z"/>
<path d="M1827 292 c-15 -16 -15 -20 -1 -40 19 -27 55 -28 79 -2 17 19 17 21
0 40 -23 25 -57 26 -78 2z"/>
</g>
</svg>
