<?xml version="1.0" standalone="no"?>
<!DOCTYPE svg PUBLIC "-//W3C//DTD SVG 20010904//EN"
 "http://www.w3.org/TR/2001/REC-SVG-20010904/DTD/svg10.dtd">
<svg version="1.0" xmlns="http://www.w3.org/2000/svg"
 width="250.000000pt" height="250.000000pt" viewBox="0 0 250.000000 250.000000"
 preserveAspectRatio="xMidYMid meet">
<metadata>
Created by potrace 1.11, written by Peter Selinger 2001-2013
</metadata>
<g transform="translate(0.000000,250.000000) scale(0.100000,-0.100000)"
fill="#000000" stroke="none">
<path d="M2020 2481 c0 -13 -96 -51 -163 -65 -35 -7 -121 -12 -201 -11 -360 6
-433 6 -446 1 -8 -3 -31 -7 -50 -10 -64 -10 -77 -14 -136 -42 -100 -47 -174
-137 -217 -264 -32 -94 -55 -314 -35 -326 35 -22 444 -36 608 -21 330 31 527
176 613 453 14 44 28 100 32 125 3 24 9 60 12 79 10 68 9 90 -4 90 -7 0 -13
-4 -13 -9z"/>
<path d="M1423 1614 c-74 -13 -117 -34 -134 -66 -7 -14 -14 -16 -23 -9 -22 18
-69 21 -87 5 -15 -14 -19 -13 -37 11 -18 23 -77 55 -101 55 -11 0 -221 -293
-221 -309 0 -14 65 -33 124 -36 118 -5 217 93 225 225 3 39 45 59 77 36 19
-14 20 -19 29 -116 6 -65 8 -87 21 -210 11 -112 13 -108 -45 -104 -36 2 -49 0
-45 -9 4 -10 59 -14 111 -8 12 1 12 7 -2 126 -3 22 -8 68 -11 103 l-5 63 39
-42 38 -42 38 49 c63 82 186 258 186 266 0 5 -4 8 -10 8 -5 0 -13 1 -17 2 -49
11 -90 12 -150 2z"/>
<path d="M810 1599 c-74 -33 -97 -112 -61 -203 l12 -29 37 51 c20 28 61 85 90
127 l52 76 -46 -2 c-25 -2 -63 -11 -84 -20z"/>
<path d="M943 1577 c-15 -23 -32 -47 -38 -54 -63 -76 -126 -180 -119 -196 9
-25 16 -21 52 31 39 58 53 77 120 170 28 41 52 77 52 81 0 4 -9 7 -19 8 -12 1
-30 -14 -48 -40z"/>
<path d="M1625 1586 c-6 -7 -14 -19 -20 -28 -21 -33 -99 -143 -104 -148 -3 -3
-20 -25 -36 -50 -17 -25 -36 -51 -42 -58 -19 -19 -16 -32 6 -32 13 0 44 33 93
103 41 56 90 125 110 152 33 46 35 52 20 62 -13 7 -20 7 -27 -1z"/>
<path d="M1657 1540 c-9 -11 -17 -23 -17 -26 0 -3 -19 -31 -43 -62 -24 -31
-64 -87 -90 -124 l-48 -67 53 5 c72 8 115 30 145 75 43 66 55 124 38 197 -7
27 -16 28 -38 2z"/>
<path d="M1160 1036 c-19 -7 -64 -27 -100 -44 -154 -70 -212 -75 -200 -17 9
48 -110 -177 -144 -273 -32 -90 -36 -109 -43 -203 -10 -137 34 -251 133 -345
49 -47 172 -118 223 -129 12 -3 31 -8 44 -11 60 -15 226 -16 303 -1 186 35
359 165 394 296 21 84 29 206 15 266 -21 100 -65 207 -136 338 -31 57 -32 58
-46 37 -20 -29 -42 -24 -196 41 -131 56 -191 67 -247 45z m139 -211 c27 -13
82 -26 134 -29 35 -3 124 20 152 38 29 19 30 18 9 -54 -8 -30 -16 -60 -17 -65
-9 -39 -61 -123 -86 -138 -44 -26 -70 -21 -172 29 -82 42 -95 45 -113 33 -49
-31 -142 -72 -175 -76 -70 -9 -129 73 -165 229 -3 14 -9 34 -12 43 -6 14 0 13
37 -6 88 -45 243 -31 313 28 l29 24 19 -20 c10 -12 31 -27 47 -36z"/>
</g>
</svg>
